<mxfile host="app.diagrams.net" agent="Mozilla/5.0 (Windows NT 10.0; Win64; x64) AppleWebKit/537.36 (KHTML, like Gecko) Chrome/136.0.0.0 Safari/537.36" version="27.0.5">
  <diagram name="Page-1" id="ZyQmZFmvy-rw2QfrpUtv">
    <mxGraphModel dx="872" dy="431" grid="1" gridSize="10" guides="1" tooltips="1" connect="1" arrows="1" fold="1" page="1" pageScale="1" pageWidth="827" pageHeight="1169" math="0" shadow="0">
      <root>
        <mxCell id="0" />
        <mxCell id="1" parent="0" />
        <mxCell id="c4iA2Lr0KtWGcnpV-RHm-1" value="&amp;lt;&amp;lt;Component&amp;gt;&amp;gt;&lt;div&gt;Payment Manager&lt;/div&gt;" style="shape=module;align=left;spacingLeft=20;align=center;verticalAlign=top;whiteSpace=wrap;html=1;" vertex="1" parent="1">
          <mxGeometry x="70" y="170" width="130" height="50" as="geometry" />
        </mxCell>
        <mxCell id="c4iA2Lr0KtWGcnpV-RHm-2" value="&lt;div&gt;&lt;br&gt;&lt;/div&gt;PaymentGateway&amp;nbsp;" style="shape=module;align=left;spacingLeft=20;align=center;verticalAlign=top;whiteSpace=wrap;html=1;" vertex="1" parent="1">
          <mxGeometry x="270" y="170" width="130" height="50" as="geometry" />
        </mxCell>
        <mxCell id="c4iA2Lr0KtWGcnpV-RHm-3" value="&amp;lt;&amp;lt;Component&amp;gt;&amp;gt;&lt;div&gt;Notification manager&lt;/div&gt;" style="shape=module;align=left;spacingLeft=20;align=center;verticalAlign=top;whiteSpace=wrap;html=1;" vertex="1" parent="1">
          <mxGeometry x="270" y="70" width="130" height="50" as="geometry" />
        </mxCell>
        <mxCell id="c4iA2Lr0KtWGcnpV-RHm-4" value="&amp;lt;&amp;lt;Component&amp;gt;&amp;gt;&lt;div&gt;Database&lt;/div&gt;" style="shape=module;align=left;spacingLeft=20;align=center;verticalAlign=top;whiteSpace=wrap;html=1;" vertex="1" parent="1">
          <mxGeometry x="270" y="280" width="130" height="50" as="geometry" />
        </mxCell>
        <mxCell id="c4iA2Lr0KtWGcnpV-RHm-5" value="" style="rounded=0;orthogonalLoop=1;jettySize=auto;html=1;endArrow=halfCircle;endFill=0;endSize=6;strokeWidth=1;sketch=0;exitX=0.085;exitY=0.52;exitDx=0;exitDy=0;exitPerimeter=0;" edge="1" parent="1" source="c4iA2Lr0KtWGcnpV-RHm-2">
          <mxGeometry relative="1" as="geometry">
            <mxPoint x="450" y="235" as="sourcePoint" />
            <mxPoint x="240" y="195" as="targetPoint" />
          </mxGeometry>
        </mxCell>
        <mxCell id="c4iA2Lr0KtWGcnpV-RHm-6" value="" style="rounded=0;orthogonalLoop=1;jettySize=auto;html=1;endArrow=oval;endFill=0;sketch=0;sourcePerimeterSpacing=0;targetPerimeterSpacing=0;endSize=10;exitX=1;exitY=0.5;exitDx=0;exitDy=0;" edge="1" parent="1" source="c4iA2Lr0KtWGcnpV-RHm-1">
          <mxGeometry relative="1" as="geometry">
            <mxPoint x="410" y="235" as="sourcePoint" />
            <mxPoint x="240" y="195" as="targetPoint" />
          </mxGeometry>
        </mxCell>
        <mxCell id="c4iA2Lr0KtWGcnpV-RHm-7" value="" style="ellipse;whiteSpace=wrap;html=1;align=center;aspect=fixed;fillColor=none;strokeColor=none;resizable=0;perimeter=centerPerimeter;rotatable=0;allowArrows=0;points=[];outlineConnect=1;" vertex="1" parent="1">
          <mxGeometry x="425" y="230" width="10" height="10" as="geometry" />
        </mxCell>
        <mxCell id="c4iA2Lr0KtWGcnpV-RHm-8" value="" style="endArrow=open;endSize=12;dashed=1;html=1;rounded=0;exitX=1;exitY=0.14;exitDx=0;exitDy=0;entryX=0.023;entryY=0.52;entryDx=0;entryDy=0;entryPerimeter=0;exitPerimeter=0;" edge="1" parent="1" source="c4iA2Lr0KtWGcnpV-RHm-1" target="c4iA2Lr0KtWGcnpV-RHm-3">
          <mxGeometry width="160" relative="1" as="geometry">
            <mxPoint x="350" y="230" as="sourcePoint" />
            <mxPoint x="510" y="230" as="targetPoint" />
            <Array as="points">
              <mxPoint x="240" y="177" />
              <mxPoint x="240" y="96" />
            </Array>
          </mxGeometry>
        </mxCell>
        <mxCell id="c4iA2Lr0KtWGcnpV-RHm-9" value="" style="endArrow=open;endSize=12;dashed=1;html=1;rounded=0;exitX=1;exitY=0.8;exitDx=0;exitDy=0;entryX=0;entryY=0.54;entryDx=0;entryDy=0;entryPerimeter=0;exitPerimeter=0;" edge="1" parent="1" source="c4iA2Lr0KtWGcnpV-RHm-1" target="c4iA2Lr0KtWGcnpV-RHm-4">
          <mxGeometry width="160" relative="1" as="geometry">
            <mxPoint x="350" y="230" as="sourcePoint" />
            <mxPoint x="510" y="230" as="targetPoint" />
            <Array as="points">
              <mxPoint x="240" y="210" />
              <mxPoint x="240" y="305" />
            </Array>
          </mxGeometry>
        </mxCell>
        <mxCell id="c4iA2Lr0KtWGcnpV-RHm-10" value="&amp;lt;&amp;lt;Component&amp;gt;&amp;gt;&lt;div&gt;&lt;p data-pm-slice=&quot;1 1 [&amp;quot;ordered_list&amp;quot;,{&amp;quot;spread&amp;quot;:true,&amp;quot;startingNumber&amp;quot;:1,&amp;quot;start&amp;quot;:378,&amp;quot;end&amp;quot;:1931},&amp;quot;regular_list_item&amp;quot;,{&amp;quot;start&amp;quot;:777,&amp;quot;end&amp;quot;:1446},&amp;quot;list&amp;quot;,{&amp;quot;spread&amp;quot;:false,&amp;quot;start&amp;quot;:822,&amp;quot;end&amp;quot;:1446},&amp;quot;regular_list_item&amp;quot;,{&amp;quot;start&amp;quot;:949,&amp;quot;end&amp;quot;:1151},&amp;quot;list&amp;quot;,{&amp;quot;spread&amp;quot;:false,&amp;quot;start&amp;quot;:971,&amp;quot;end&amp;quot;:1151},&amp;quot;regular_list_item&amp;quot;,{&amp;quot;start&amp;quot;:971,&amp;quot;end&amp;quot;:1029}]&quot;&gt;CreditCardPayment&lt;/p&gt;&lt;/div&gt;" style="shape=module;align=left;spacingLeft=20;align=center;verticalAlign=top;whiteSpace=wrap;html=1;" vertex="1" parent="1">
          <mxGeometry x="520" y="90" width="130" height="50" as="geometry" />
        </mxCell>
        <mxCell id="c4iA2Lr0KtWGcnpV-RHm-11" value="&amp;lt;&amp;lt;Component&amp;gt;&amp;gt;&lt;div&gt;&lt;p data-pm-slice=&quot;1 1 [&amp;quot;ordered_list&amp;quot;,{&amp;quot;spread&amp;quot;:true,&amp;quot;startingNumber&amp;quot;:1,&amp;quot;start&amp;quot;:378,&amp;quot;end&amp;quot;:1931},&amp;quot;regular_list_item&amp;quot;,{&amp;quot;start&amp;quot;:777,&amp;quot;end&amp;quot;:1446},&amp;quot;list&amp;quot;,{&amp;quot;spread&amp;quot;:false,&amp;quot;start&amp;quot;:822,&amp;quot;end&amp;quot;:1446},&amp;quot;regular_list_item&amp;quot;,{&amp;quot;start&amp;quot;:949,&amp;quot;end&amp;quot;:1151},&amp;quot;list&amp;quot;,{&amp;quot;spread&amp;quot;:false,&amp;quot;start&amp;quot;:971,&amp;quot;end&amp;quot;:1151},&amp;quot;regular_list_item&amp;quot;,{&amp;quot;start&amp;quot;:1035,&amp;quot;end&amp;quot;:1084}]&quot;&gt;PayPalPayment&lt;/p&gt;&lt;/div&gt;" style="shape=module;align=left;spacingLeft=20;align=center;verticalAlign=top;whiteSpace=wrap;html=1;" vertex="1" parent="1">
          <mxGeometry x="520" y="170" width="130" height="50" as="geometry" />
        </mxCell>
        <mxCell id="c4iA2Lr0KtWGcnpV-RHm-12" value="&amp;lt;&amp;lt;Component&amp;gt;&amp;gt;&lt;div&gt;&lt;p data-pm-slice=&quot;1 1 [&amp;quot;ordered_list&amp;quot;,{&amp;quot;spread&amp;quot;:true,&amp;quot;startingNumber&amp;quot;:1,&amp;quot;start&amp;quot;:378,&amp;quot;end&amp;quot;:1931},&amp;quot;regular_list_item&amp;quot;,{&amp;quot;start&amp;quot;:777,&amp;quot;end&amp;quot;:1446},&amp;quot;list&amp;quot;,{&amp;quot;spread&amp;quot;:false,&amp;quot;start&amp;quot;:822,&amp;quot;end&amp;quot;:1446},&amp;quot;regular_list_item&amp;quot;,{&amp;quot;start&amp;quot;:949,&amp;quot;end&amp;quot;:1151},&amp;quot;list&amp;quot;,{&amp;quot;spread&amp;quot;:false,&amp;quot;start&amp;quot;:971,&amp;quot;end&amp;quot;:1151},&amp;quot;regular_list_item&amp;quot;,{&amp;quot;start&amp;quot;:1090,&amp;quot;end&amp;quot;:1151}]&quot;&gt;&lt;font style=&quot;font-size: 11px;&quot;&gt;BankTransferPayment&lt;/font&gt;&lt;/p&gt;&lt;/div&gt;" style="shape=module;align=left;spacingLeft=20;align=center;verticalAlign=top;whiteSpace=wrap;html=1;" vertex="1" parent="1">
          <mxGeometry x="520" y="260" width="130" height="50" as="geometry" />
        </mxCell>
        <mxCell id="c4iA2Lr0KtWGcnpV-RHm-13" value="" style="endArrow=block;dashed=1;endFill=0;endSize=12;html=1;rounded=0;exitX=1;exitY=0.5;exitDx=0;exitDy=0;entryX=0;entryY=0.5;entryDx=0;entryDy=0;entryPerimeter=0;" edge="1" parent="1" source="c4iA2Lr0KtWGcnpV-RHm-2" target="c4iA2Lr0KtWGcnpV-RHm-11">
          <mxGeometry width="160" relative="1" as="geometry">
            <mxPoint x="350" y="230" as="sourcePoint" />
            <mxPoint x="510" y="230" as="targetPoint" />
          </mxGeometry>
        </mxCell>
        <mxCell id="c4iA2Lr0KtWGcnpV-RHm-14" value="" style="endArrow=block;dashed=1;endFill=0;endSize=12;html=1;rounded=0;exitX=1;exitY=0.5;exitDx=0;exitDy=0;entryX=0.023;entryY=0.52;entryDx=0;entryDy=0;entryPerimeter=0;" edge="1" parent="1" source="c4iA2Lr0KtWGcnpV-RHm-2" target="c4iA2Lr0KtWGcnpV-RHm-10">
          <mxGeometry width="160" relative="1" as="geometry">
            <mxPoint x="350" y="230" as="sourcePoint" />
            <mxPoint x="510" y="230" as="targetPoint" />
            <Array as="points">
              <mxPoint x="450" y="195" />
              <mxPoint x="450" y="116" />
            </Array>
          </mxGeometry>
        </mxCell>
        <mxCell id="c4iA2Lr0KtWGcnpV-RHm-15" value="" style="endArrow=block;dashed=1;endFill=0;endSize=12;html=1;rounded=0;exitX=1;exitY=0.5;exitDx=0;exitDy=0;entryX=0.023;entryY=0.52;entryDx=0;entryDy=0;entryPerimeter=0;" edge="1" parent="1" source="c4iA2Lr0KtWGcnpV-RHm-2" target="c4iA2Lr0KtWGcnpV-RHm-12">
          <mxGeometry width="160" relative="1" as="geometry">
            <mxPoint x="350" y="260" as="sourcePoint" />
            <mxPoint x="510" y="260" as="targetPoint" />
            <Array as="points">
              <mxPoint x="450" y="195" />
              <mxPoint x="450" y="286" />
            </Array>
          </mxGeometry>
        </mxCell>
      </root>
    </mxGraphModel>
  </diagram>
</mxfile>
